<svg viewBox="0 0 900 235" xmlns="http://www.w3.org/2000/svg" width="900" height="235">
  <defs>
    <style>
      .mono { font-family: "JetBrains Mono", "Fira Code", "Menlo", "Consolas", monospace; }
      .sans { font-family: "Inter", "-apple-system", "BlinkMacSystemFont", "Segoe UI", "Helvetica", sans-serif; }
      .bold { font-weight: 700; }
    </style>
  </defs>
  <path d="M 0 8 Q 0 0 8 0 L 892 0 Q 900 0 900 8 L 900 235 L 0 235 Z" fill="#faf4ed" />
  <path d="M 0 8 Q 0 0 8 0 L 892 0 Q 900 0 900 8 L 900 36 L 0 36 Z" fill="#f2e9e1" opacity="0.8" />
  <line x1="0" y1="36" x2="900" y2="36" stroke="#9893a5" stroke-opacity="0.2" stroke-width="1" />
  <circle cx="20" cy="18" r="6" fill="#ff5f56" />
  <circle cx="40" cy="18" r="6" fill="#ffbd2e" />
  <circle cx="60" cy="18" r="6" fill="#27c93f" />
  <text x="450" y="19" text-anchor="middle" dominant-baseline="middle" class="mono" fill="#9893a5" font-size="12" letter-spacing="0.5">fpalumbo42 — zsh</text>
  <text x="30" y="70" class="mono" fill="#575279" font-size="16" font-weight="600"><tspan fill="#b4637a" class="bold">❯</tspan><tspan fill="#ea9d34" xml:space="preserve"> ~/ </tspan><tspan>whoami</tspan></text>
  <text x="30" y="105" class="sans" fill="#575279" font-size="26" font-weight="800" letter-spacing="-1">Fabio Palumbo</text>
  <text x="30" y="140" class="mono" fill="#575279" font-size="16" font-weight="600"><tspan fill="#b4637a" class="bold">❯</tspan><tspan fill="#ea9d34" xml:space="preserve"> ~/ </tspan><tspan>cat bio.txt</tspan></text>
  <text x="30" y="170" class="sans" font-size="18" font-weight="600"><tspan fill="#b4637a">42 Student</tspan><tspan fill="#9893a5"> | </tspan><tspan fill="#ea9d34">UncovAI</tspan><tspan fill="#9893a5"> | </tspan><tspan fill="#56949f">Software Engineer</tspan><tspan fill="#9893a5"> | </tspan><tspan fill="#286983">Nice, France</tspan></text>
  <text x="30" y="205" class="mono" fill="#575279" font-size="16" font-weight="600"><tspan fill="#b4637a" class="bold">❯</tspan><tspan fill="#ea9d34" xml:space="preserve"> ~/ </tspan><tspan>gh stats</tspan></text>
  <path d="M 0.5 235 L 0.5 8 Q 0.5 0.5 8 0.5 L 892 0.5 Q 899.5 0.5 899.5 8 L 899.5 235" fill="none" stroke="#9893a5" stroke-opacity="0.3" stroke-width="1" />
</svg>
